<?xml version="1.0" encoding="UTF-8"?><svg id="b" xmlns="http://www.w3.org/2000/svg" width="307.12" height="175.97" viewBox="0 0 307.12 175.97"><g id="c"><path d="M152.26,84.96c.45-17.67,17.16-54.32,55.29-29.99-24.43-25.28-63.56-7.66-55.29,29.99Z" style="fill:#fff8e1; stroke:#000; stroke-miterlimit:10;"/><path d="M144.48,120.57l8.21.68c2.26-.98,14.42-19.37,1.08-44.27l-1.5,7.98c-10.53,17.58-9.7,25.12-7.79,35.61Z" style="fill:#cf6828; stroke:#000; stroke-linecap:square; stroke-linejoin:bevel;"/><path d="M143.92,122.78c9.13,12.14,13.44,35.9,21.61,48.37,1.39-14.87-2.14-37.51-12.85-49.9l-8.21-.68c-.18.76-.37,1.51-.55,2.22Z" style="fill:#2e1a00; stroke:#000; stroke-linecap:square; stroke-linejoin:bevel;"/><path d="M257.3,45.26c2.29,3.44,1.66,6.49,6.94,10.64,3.25,1.79,18.88,3.62,18.88,3.62-3.37-16.18-25.81-14.26-25.81-14.26ZM269.66,72.79c1.55,3.26,4.18,1.99,2.59-1.25-1.55-3.26-4.18-1.99-2.59,1.25Z" style="fill:#cf6828; stroke:#000; stroke-linecap:square; stroke-linejoin:bevel;"/><path d="M28.32,134.18l7.12,8.15c29.38,2.83,64.36-61.54,64.36-61.54,0,0,27.75,14.68,27.75,53.53.04,0,12.33,1.06,12.36,1.06,0,0,15.8-34.76,12.36-50.42-7.68-54.02,59.11-50.51,71.24-4.32l8.08-2.27c-1.83-10.28-1.29-7.94-1.16-8.03.17-.1-.97-2.08,2.75,7.58l8.14-6.72c1.02-23.52-3.92-18.04,6.3-11.29,11.51,2.05,10.3,15.37,17.57,21.74.2.19,11.63,11.21,11.83,11.41-4.08-24.33,23.51-20.51,8.72-50.87C207.8-35.02,115.16,7.75,93.34,67.7c-19.36,39.2-68.13,41.72-65.09,54.3l7.45,5.74-7.38,6.44ZM257.3,45.26s22.44-1.92,25.81,14.26c0,0-15.63-1.83-18.87-3.62-5.28-4.16-4.65-7.19-6.94-10.64Z" style="fill:#cf6828; stroke:#000; stroke-linecap:square; stroke-linejoin:bevel;"/><path d="M273.47,73.4c1.28,3.38,4.01,2.32,2.69-1.04-1.28-3.37-4.01-2.32-2.69,1.04Z" style="fill:#000; stroke:#000; stroke-linecap:square; stroke-linejoin:bevel;"/><path d="M273.84,101.82c2.54-1,3.26-3.14,3.3-5.89,0,0-3.78-.74-3.3,5.89Z" style="fill:#2e1a00; stroke:#000; stroke-linecap:square; stroke-linejoin:bevel;"/><path d="M233.17,77.93c3.82,9.92,8.31,33.22,12.11,36.09,1.77-6.67-1.35-29.39-3.98-42.81l-8.14,6.72Z" style="fill:#2e1a00; stroke:#000; stroke-linecap:square; stroke-linejoin:bevel;"/><path d="M223.51,80.65c4.96,13,9.33,32.46,14.66,35.76,1.79-5.35-2.54-23.82-6.58-38.03l-8.08,2.27Z" style="fill:#2e1a00; stroke:#000; stroke-linecap:square; stroke-linejoin:bevel;"/><path d="M127.55,134.31c8.84,14.37,13.25,26.69,20.79,41.43,1.15-16.34-2.31-25.39-8.43-40.37-.02,0-12.33-1.06-12.36-1.06Z" style="fill:#2e1a00; stroke:#000; stroke-linecap:square; stroke-linejoin:bevel;"/><path d="M35.43,142.33l-7.12-8.15,7.38-6.44-7.45-5.74,5.11-7.83c-12.18,4.91-24.32,7.41-32.14,7.54,13.18,12.59,24.47,19.11,34.21,20.62Z" style="fill:#fff8e1; stroke:#000; stroke-miterlimit:10;"/><path d="M285.73,42.2c1.66,3.18,3.23,7.57,3.87,12.06,0,0,22.5,19.07,15.76,5.95,0,0-6.28-15.12-19.63-18Z" style="fill:#2e1a00; stroke:#000; stroke-linecap:square; stroke-linejoin:bevel;"/><path d="M259.06,48.77s1.93,5.34,5.18,7.14c3.25,1.79,18.87,3.62,18.87,3.62,0,0-11.81-11.76-24.05-10.76Z" style="fill:#fff; stroke:#000; stroke-linecap:square; stroke-linejoin:bevel;"/><path d="M257.3,45.26l1.76,3.5c12.24-1,24.05,10.76,24.05,10.76-3.37-16.18-25.81-14.26-25.81-14.26Z" style="fill:#2e1a00; stroke:#000; stroke-linecap:square; stroke-linejoin:bevel;"/><path d="M240.33,53.16c6.6,20.01,21.73,34.92,23.89,40.69s7.58,9.09,9.62,7.97c-.47-6.63,3.3-5.89,3.3-5.89.02-.9-.04-1.86-.14-2.86-1.27-1.2-14.96-15.33-16.52-20.27-2.59-17.62-9.34-14.73-20.16-19.64Z" style="fill:#fff8e1; stroke:#000; stroke-miterlimit:10;"/></g></svg>